<svg width="52" height="52" viewBox="0 0 52 52" fill="none" xmlns="http://www.w3.org/2000/svg">
<rect width="52" height="52" rx="9.4" fill="white"/>
<g clip-path="url(#clip0)">
<path d="M31.8897 26.5153C31.9222 29.9712 34.9618 31.1212 34.9955 31.1359C34.9698 31.217 34.5098 32.7748 33.3941 34.3839C32.4296 35.775 31.4286 37.1611 29.8517 37.1898C28.3022 37.2179 27.804 36.283 26.0325 36.283C24.2616 36.283 23.708 37.1611 22.2412 37.2179C20.7191 37.2748 19.5601 35.7136 18.5875 34.3276C16.6003 31.4924 15.0817 26.3159 17.1208 22.8218C18.1338 21.0866 19.9442 19.9877 21.9091 19.9596C23.4038 19.9314 24.8146 20.9519 25.7283 20.9519C26.6414 20.9519 28.3559 19.7247 30.1582 19.9049C30.9127 19.9359 33.0306 20.2057 34.3906 22.1702C34.281 22.2372 31.8634 23.6261 31.8897 26.5153V26.5153ZM28.9777 18.0292C29.7858 17.0639 30.3297 15.7201 30.1813 14.383C29.0165 14.4292 27.608 15.149 26.7725 16.1138C26.0237 16.9681 25.3679 18.3356 25.5449 19.6462C26.8432 19.7453 28.1695 18.9951 28.9777 18.0292" fill="black"/>
</g>
<defs>
<clipPath id="clip0">
<rect width="18.8424" height="22.88" fill="white" transform="translate(16.1532 14.383)"/>
</clipPath>
</defs>
</svg>
