<svg width="52" height="52" viewBox="0 0 52 52" fill="none" xmlns="http://www.w3.org/2000/svg">
<rect width="52" height="52" rx="9.4" fill="white"/>
<g clip-path="url(#clip0)">
<path d="M20.5417 28.059L19.8176 30.7619L17.1714 30.8179C16.3805 29.351 15.9319 27.6727 15.9319 25.8893C15.9319 24.1647 16.3514 22.5384 17.0948 21.1064H17.0954L19.4513 21.5384L20.4833 23.8802C20.2673 24.5099 20.1496 25.1859 20.1496 25.8893C20.1497 26.6527 20.288 27.3842 20.5417 28.059Z" fill="#FBBB00"/>
<path d="M36.5504 23.9465C36.6698 24.5756 36.7321 25.2253 36.7321 25.8894C36.7321 26.6339 36.6538 27.3602 36.5047 28.0608C35.9984 30.4448 34.6755 32.5265 32.843 33.9997L32.8424 33.9991L29.875 33.8477L29.455 31.2259C30.671 30.5128 31.6213 29.3968 32.1219 28.0608H26.5607V23.9465H32.203H36.5504Z" fill="#518EF8"/>
<path d="M32.8421 33.9991L32.8427 33.9997C31.0604 35.4323 28.7964 36.2894 26.3318 36.2894C22.3712 36.2894 18.9278 34.0757 17.1712 30.818L20.5415 28.0592C21.4198 30.4031 23.6809 32.0717 26.3318 32.0717C27.4712 32.0717 28.5387 31.7637 29.4546 31.226L32.8421 33.9991Z" fill="#28B446"/>
<path d="M32.9703 17.8837L29.6011 20.6419C28.6531 20.0494 27.5325 19.7071 26.332 19.7071C23.6211 19.7071 21.3177 21.4522 20.4834 23.8802L17.0954 21.1065H17.0948C18.8257 17.7694 22.3125 15.4894 26.332 15.4894C28.8554 15.4894 31.1691 16.3883 32.9703 17.8837Z" fill="#F14336"/>
</g>
<defs>
<clipPath id="clip0">
<rect width="20.8" height="20.8" fill="white" transform="translate(15.9319 15.4894)"/>
</clipPath>
</defs>
</svg>
